<?xml version="1.0" standalone="no"?>
<!DOCTYPE svg PUBLIC "-//W3C//DTD SVG 20010904//EN"
 "http://www.w3.org/TR/2001/REC-SVG-20010904/DTD/svg10.dtd">
<svg version="1.0" xmlns="http://www.w3.org/2000/svg"
 width="1627.000000pt" height="492.000000pt" viewBox="0 0 1627.000000 492.000000"
 preserveAspectRatio="xMidYMid meet">

<g transform="translate(0.000000,492.000000) scale(0.100000,-0.100000)"
fill="#000000" stroke="none">
<path d="M1275 2728 c-687 -1190 -1250 -2167 -1253 -2172 -3 -5 19 5 49 22 30
17 416 240 859 496 l805 464 398 688 397 689 0 987 c0 544 -2 988 -4 988 -2 0
-565 -973 -1251 -2162z"/>
<path d="M3130 3899 l0 -985 398 -687 397 -688 848 -488 c466 -269 847 -487
847 -486 0 4 -320 561 -1118 1945 -322 558 -756 1312 -965 1675 -209 363 -386
669 -394 680 -11 16 -13 -137 -13 -966z"/>
<path d="M9305 4288 c-33 -93 -275 -813 -275 -819 0 -5 22 -9 49 -9 l49 0 45
133 44 132 153 0 153 0 45 -132 44 -133 55 0 c30 0 53 4 51 10 -1 5 -66 194
-143 419 l-140 411 -63 0 c-41 0 -64 -4 -67 -12z m75 -105 c0 -10 27 -98 59
-195 l59 -178 -129 0 c-71 0 -129 2 -129 4 0 2 20 59 44 127 23 68 51 154 61
192 17 63 35 88 35 50z"/>
<path d="M9255 2884 c-16 -2 -49 -7 -72 -10 l-43 -5 0 -415 0 -414 55 0 55 0
0 185 0 185 73 0 c133 0 169 -36 211 -212 40 -166 35 -158 101 -158 51 0 55 2
46 18 -5 10 -24 74 -41 143 -35 137 -64 197 -111 227 l-32 20 37 17 c81 38
135 142 121 229 -14 84 -64 142 -146 171 -42 15 -200 27 -254 19z m178 -85
c22 -6 55 -26 75 -44 36 -32 37 -36 37 -104 0 -64 -3 -72 -30 -102 -44 -46
-83 -59 -180 -59 l-85 0 0 154 c0 139 2 155 18 159 33 9 127 7 165 -4z"/>
<path d="M9070 1425 l0 -45 125 0 125 0 0 -375 0 -375 55 0 55 0 0 375 0 375
125 0 125 0 0 45 0 45 -305 0 -305 0 0 -45z"/>
<path d="M2237 1012 l-207 -2 -843 -486 c-463 -268 -845 -489 -850 -493 -4 -4
1112 -6 2479 -4 1368 2 2488 4 2490 6 1 1 -378 221 -842 490 l-844 487 -587 3
c-324 1 -681 1 -796 -1z"/>
</g>
</svg>
